<svg width="20" height="20" fill="none" xmlns="http://www.w3.org/2000/svg"><path d="M4.5 14.396a7.995 7.995 0 0 1 2.583-1.427 9.419 9.419 0 0 1 5.833-.01 7.652 7.652 0 0 1 2.584 1.437V4.5h-11v9.896Zm5.505-2.896c.83 0 1.537-.293 2.12-.88A2.904 2.904 0 0 0 13 8.495c0-.83-.293-1.537-.88-2.12A2.904 2.904 0 0 0 9.995 5.5c-.83 0-1.537.293-2.12.88A2.904 2.904 0 0 0 7 8.505c0 .83.293 1.537.88 2.12a2.904 2.904 0 0 0 2.125.875ZM4.5 17c-.412 0-.766-.147-1.06-.44A1.445 1.445 0 0 1 3 15.5v-11c0-.412.147-.766.44-1.06.294-.293.648-.44 1.06-.44h11c.412 0 .766.147 1.06.44.293.294.44.648.44 1.06v11c0 .412-.147.766-.44 1.06-.294.293-.647.44-1.06.44h-11Zm1.02-1.5h8.96a7.291 7.291 0 0 0-2.105-1.115A7.401 7.401 0 0 0 10 14c-.82 0-1.608.129-2.365.385A7.628 7.628 0 0 0 5.521 15.5ZM10 10c-.417 0-.77-.146-1.063-.438A1.447 1.447 0 0 1 8.5 8.5c0-.417.146-.77.438-1.063A1.447 1.447 0 0 1 10 7c.417 0 .77.146 1.063.438.291.291.437.645.437 1.062 0 .417-.146.77-.438 1.063A1.447 1.447 0 0 1 10 10Z" fill="#000"/></svg>