<svg width="20" height="20" fill="none" xmlns="http://www.w3.org/2000/svg"><path d="M7.5 18c-.75 0-1.455-.135-2.115-.406a5.408 5.408 0 0 1-1.78-1.198 5.407 5.407 0 0 1-1.199-1.781A5.513 5.513 0 0 1 2 12.5c0-1.056.27-2.024.813-2.906a5.36 5.36 0 0 1 2.25-2.031c.236-.514.572-.99 1.01-1.428a5.693 5.693 0 0 1 1.49-1.072 5.458 5.458 0 0 1 2.03-2.24A5.395 5.395 0 0 1 12.5 2c.75 0 1.455.135 2.115.406.66.271 1.253.67 1.78 1.198a5.408 5.408 0 0 1 1.199 1.781c.27.66.406 1.365.406 2.115 0 1.07-.267 2.038-.802 2.906-.535.868-1.288 1.545-2.26 2.031a5.174 5.174 0 0 1-1.053 1.48c-.437.43-.92.77-1.447 1.02a5.604 5.604 0 0 1-2.053 2.24A5.36 5.36 0 0 1 7.5 18Zm0-1.5c.458 0 .92-.087 1.385-.26.466-.174.879-.42 1.24-.74-.764.028-1.49-.1-2.177-.385a5.639 5.639 0 0 1-1.844-1.24 5.532 5.532 0 0 1-1.229-1.833A5.17 5.17 0 0 1 4.5 9.875c-.32.361-.566.774-.74 1.24a3.954 3.954 0 0 0 .031 2.906c.195.472.487.903.876 1.291A3.911 3.911 0 0 0 7.5 16.5ZM10 14c.472 0 .938-.087 1.396-.26.458-.174.875-.42 1.25-.74a5.247 5.247 0 0 1-2.167-.375 5.55 5.55 0 0 1-1.875-1.25 5.5 5.5 0 0 1-1.24-1.844A5.208 5.208 0 0 1 7 7.375c-.32.361-.566.767-.74 1.219C6.087 9.045 6 9.514 6 10c0 .542.097 1.049.292 1.52.194.473.486.904.875 1.293A3.911 3.911 0 0 0 10 14Zm2.438-2.52c.236 0 .468-.018.697-.053.23-.035.441-.087.636-.156.25-.736.291-1.469.125-2.198a3.868 3.868 0 0 0-1.063-1.906 3.868 3.868 0 0 0-1.906-1.063 3.965 3.965 0 0 0-2.198.125c-.07.195-.121.406-.156.636-.035.229-.052.461-.052.697 0 .514.1 1.007.302 1.48.201.472.483.889.844 1.25a4.09 4.09 0 0 0 1.291.875c.486.208.98.312 1.48.312Zm3.062-1.355c.32-.347.566-.75.74-1.208a3.968 3.968 0 0 0-.042-2.938 4.021 4.021 0 0 0-.886-1.312 3.943 3.943 0 0 0-1.291-.875A3.954 3.954 0 0 0 12.5 3.5a3.83 3.83 0 0 0-1.385.26c-.452.174-.865.42-1.24.74a5.259 5.259 0 0 1 2.188.365c.666.27 1.277.684 1.833 1.24a5.528 5.528 0 0 1 1.24 1.832c.27.667.392 1.396.364 2.188Z" fill="#000"/></svg>