<svg width="24" height="24" fill="none" xmlns="http://www.w3.org/2000/svg"><mask id="a" style="mask-type:alpha" maskUnits="userSpaceOnUse" x="0" y="0" width="24" height="24"><path fill="#D9D9D9" d="M0 0h24v24H0z"/></mask><g mask="url(#a)"><path d="M6.625 12.99h7.213l-1.591 1.591 1.414 1.414L17.656 12l-3.995-3.995-1.414 1.414 1.573 1.573H6.643l-.018 1.998Zm-1.697 6.081a9.738 9.738 0 0 1-2.2-3.315A10.098 10.098 0 0 1 1.994 12c0-1.273.244-2.525.734-3.756a9.738 9.738 0 0 1 2.2-3.315 9.737 9.737 0 0 1 3.315-2.2 10.098 10.098 0 0 1 3.756-.735c1.273 0 2.525.245 3.757.734a9.737 9.737 0 0 1 3.315 2.201 9.737 9.737 0 0 1 2.2 3.315c.49 1.231.734 2.483.734 3.756 0 1.273-.244 2.525-.734 3.757a9.737 9.737 0 0 1-2.2 3.314 9.737 9.737 0 0 1-3.315 2.201c-1.232.49-2.484.734-3.757.734-1.272 0-2.524-.245-3.756-.734a9.737 9.737 0 0 1-3.315-2.2Zm1.415-1.414c1.579 1.58 3.464 2.369 5.656 2.369 2.192 0 4.078-.79 5.657-2.37 1.58-1.578 2.37-3.464 2.37-5.656 0-2.192-.79-4.078-2.37-5.657C16.077 4.764 14.192 3.974 12 3.974c-2.193 0-4.078.79-5.657 2.37-1.58 1.578-2.37 3.464-2.37 5.656 0 2.192.79 4.078 2.37 5.657Z" fill="#1F1F1F"/></g></svg>