<svg width="20" height="20" fill="none" xmlns="http://www.w3.org/2000/svg"><path d="M5.146 17.104a3.767 3.767 0 0 1-1.76-.427A4.133 4.133 0 0 1 2 15.521a1.71 1.71 0 0 0 1.104-.48c.306-.291.458-.652.458-1.083 0-.666.23-1.225.691-1.677a2.306 2.306 0 0 1 1.677-.677c.658 0 1.212.23 1.664.687.451.458.677 1.013.677 1.667 0 .875-.302 1.618-.906 2.23-.605.61-1.344.916-2.22.916Zm0-1.396c.481 0 .893-.171 1.236-.514.343-.343.514-.754.514-1.236a.923.923 0 0 0-.281-.677.923.923 0 0 0-.678-.281.923.923 0 0 0-.677.281.923.923 0 0 0-.28.677c0 .306-.036.601-.105.886a1.78 1.78 0 0 1-.396.76c.111.028.222.052.333.073.112.02.223.031.334.031Zm4.917-3.541-2.126-2.125 6.646-6.646a.965.965 0 0 1 .709-.292c.277 0 .514.097.708.292l.708.708c.195.2.292.435.292.703a.947.947 0 0 1-.292.693l-6.645 6.667Z" fill="#000"/></svg>