<svg width="20" height="20" fill="none" xmlns="http://www.w3.org/2000/svg"><path d="M19.147 7.928v1.373a3.518 3.518 0 0 0-.906-.418 3.15 3.15 0 0 0-.939-.145c-.35 0-.615.052-.794.155a.486.486 0 0 0-.268.451c0 .286.383.518 1.148.697l.059.016.45.107c.572.136.99.356 1.255.66.268.3.402.708.402 1.223 0 .618-.203 1.083-.61 1.394-.405.308-1.014.461-1.83.461a6.62 6.62 0 0 1-1.11-.096 7.817 7.817 0 0 1-1.153-.28v-1.372c.347.197.7.347 1.057.45.36.104.71.156 1.045.156.369 0 .648-.054.837-.16a.509.509 0 0 0 .284-.467c0-.2-.068-.354-.204-.462-.132-.107-.45-.221-.954-.343l-.434-.096c-.601-.136-1.039-.349-1.314-.638-.276-.29-.413-.678-.413-1.164 0-.58.209-1.03.627-1.352.418-.321 1.007-.482 1.765-.482.34 0 .677.028 1.013.086.34.053.669.135.987.246ZM10.059 11.242V6.61H8.466V5.402h3.164v5.84c0 .472.073.807.22 1.003.147.197.395.295.745.295h1.255v1.207h-1.694c-.748 0-1.284-.193-1.61-.58-.324-.386-.487-1.027-.487-1.925ZM8.484 13.441a3.231 3.231 0 0 1-.853.343 3.909 3.909 0 0 1-.982.118c-.926 0-1.65-.278-2.171-.836-.522-.558-.783-1.33-.783-2.317 0-.99.262-1.764.788-2.322.525-.561 1.251-.842 2.177-.842a3.768 3.768 0 0 1 1.824.461v1.437a2.51 2.51 0 0 0-.757-.45 2.288 2.288 0 0 0-.847-.16c-.511 0-.904.162-1.18.487-.275.325-.413.788-.413 1.39 0 .6.138 1.06.413 1.383.276.321.669.482 1.18.482.304 0 .588-.05.853-.15.264-.104.515-.26.75-.466v1.442ZM1 11.779h1.786v1.968H1v-1.968Z" fill="#000"/></svg>