<svg width="20" height="20" fill="none" xmlns="http://www.w3.org/2000/svg"><path d="m16.625 14.5-1.104-1.104a6.667 6.667 0 0 0 .979-3.021 3.75 3.75 0 0 1-1.563-1.156 3.805 3.805 0 0 1-.791-1.781c-1.056-.153-1.952-.59-2.688-1.313A4.406 4.406 0 0 1 10.146 3.5a5.68 5.68 0 0 0-1.886.188 6.299 6.299 0 0 0-1.697.75L5.457 3.333a7.768 7.768 0 0 1 2.948-1.302 6.588 6.588 0 0 1 3.26.136c-.11.61-.076 1.173.105 1.687.18.514.465.941.854 1.281.389.34.861.577 1.417.709.555.132 1.146.121 1.77-.031-.347.791-.295 1.545.157 2.26.451.715 1.114 1.087 1.99 1.114.11.985.044 1.93-.199 2.833a8.053 8.053 0 0 1-1.135 2.48Zm-9.875-2c-.347 0-.642-.121-.885-.364a1.206 1.206 0 0 1-.365-.886c0-.347.122-.642.365-.885S6.403 10 6.75 10s.642.122.885.365.365.538.365.885-.122.642-.365.886a1.206 1.206 0 0 1-.885.364Zm9.125 5.5L14.5 16.625c-.68.445-1.4.785-2.156 1.02A7.826 7.826 0 0 1 10 18a7.787 7.787 0 0 1-3.108-.625 8.074 8.074 0 0 1-2.548-1.719 8.077 8.077 0 0 1-1.719-2.548A7.788 7.788 0 0 1 2 10c0-.806.118-1.587.354-2.344A8.626 8.626 0 0 1 3.375 5.5L2 4.125l1.063-1.062 13.874 13.874L15.876 18Zm-5.873-1.5c.61 0 1.2-.09 1.769-.27a9.058 9.058 0 0 0 1.646-.71L4.479 6.584a9.051 9.051 0 0 0-.708 1.646C3.59 8.8 3.5 9.39 3.5 9.998c0 1.801.633 3.336 1.9 4.602 1.266 1.267 2.8 1.9 4.602 1.9Z" fill="#000"/></svg>