<svg width="117" height="72" fill="none" xmlns="http://www.w3.org/2000/svg"><g clip-path="url(#a)"><path fill="#fff" d="M0 0h117v72H0z"/><g clip-path="url(#b)"><path d="M714.5-129H-130v563.556h844.5V-129Z" fill="#1A73E8"/><path d="m-130-129 317.039 317.352M187.039-129.352-130 188M49.456-129v317M7.231-129v317M433 50.633h-563M433 8.367h-563M28.344 59.363c16.476 0 29.833-13.37 29.833-29.863 0-16.493-13.357-29.863-29.833-29.863C11.867-.363-1.49 13.007-1.49 29.5c0 16.493 13.356 29.863 29.833 29.863ZM-130 29.5h563M28.344-129v317" stroke="#fff" stroke-opacity=".3" stroke-width=".5"/><path clip-rule="evenodd" d="M27.992 71.062c23.126 0 41.873-18.765 41.873-41.914S51.118-12.767 27.992-12.767C4.866-12.767-13.881 6-13.881 29.148S4.866 71.062 27.992 71.062Z" stroke="#fff"/><path d="M27.992 50.431c11.743 0 21.262-9.529 21.262-21.283 0-11.755-9.52-21.284-21.262-21.284-11.743 0-21.263 9.53-21.263 21.284S16.25 50.43 27.992 50.43Z" stroke="#fff"/><path d="M27.992 44.99c8.74 0 15.826-7.093 15.826-15.842 0-8.75-7.086-15.842-15.826-15.842s-15.827 7.093-15.827 15.842S19.252 44.99 27.992 44.99ZM46.414 39.808 28.399 71.041M9.547 39.806-8.467 8.573M27.992 7.864h36.03" stroke="#fff"/></g><g filter="url(#c)"><path d="M73.059 30.804c4 2.31 4 8.083 0 10.392L56.47 50.773c-4 2.31-9-.577-9-5.196V26.423c0-4.619 5-7.506 9-5.196l16.588 9.577Z" fill="#ECF3FE"/></g><g filter="url(#d)"><path d="M78 30.804c4 2.31 4 8.083 0 10.392L54 55.053c-4 2.309-9-.578-9-5.197V22.144c0-4.62 5-7.506 9-5.197l24 13.857Z" fill="#fff" fill-opacity=".3"/></g></g><defs><clipPath id="a"><path fill="#fff" d="M0 0h117v72H0z"/></clipPath><clipPath id="b"><path fill="#fff" transform="translate(-130 -129)" d="M0 0h563v317H0z"/></clipPath><filter id="c" x="39.471" y="14.414" width="44.588" height="47.172" filterUnits="userSpaceOnUse" color-interpolation-filters="sRGB"><feFlood flood-opacity="0" result="BackgroundImageFix"/><feColorMatrix in="SourceAlpha" values="0 0 0 0 0 0 0 0 0 0 0 0 0 0 0 0 0 0 127 0" result="hardAlpha"/><feMorphology radius="2" operator="dilate" in="SourceAlpha" result="effect1_dropShadow_4199_2136"/><feOffset dy="2"/><feGaussianBlur stdDeviation="3"/><feColorMatrix values="0 0 0 0 0 0 0 0 0 0 0 0 0 0 0 0 0 0 0.15 0"/><feBlend in2="BackgroundImageFix" result="effect1_dropShadow_4199_2136"/><feColorMatrix in="SourceAlpha" values="0 0 0 0 0 0 0 0 0 0 0 0 0 0 0 0 0 0 127 0" result="hardAlpha"/><feOffset dy="1"/><feGaussianBlur stdDeviation="1"/><feColorMatrix values="0 0 0 0 0 0 0 0 0 0 0 0 0 0 0 0 0 0 0.3 0"/><feBlend in2="effect1_dropShadow_4199_2136" result="effect2_dropShadow_4199_2136"/><feBlend in="SourceGraphic" in2="effect2_dropShadow_4199_2136" result="shape"/></filter><filter id="d" x="37" y="8.135" width="52" height="55.731" filterUnits="userSpaceOnUse" color-interpolation-filters="sRGB"><feFlood flood-opacity="0" result="BackgroundImageFix"/><feBlend in="SourceGraphic" in2="BackgroundImageFix" result="shape"/><feGaussianBlur stdDeviation="4" result="effect1_foregroundBlur_4199_2136"/></filter></defs></svg>