<svg width="117" height="72" fill="none" xmlns="http://www.w3.org/2000/svg"><g clip-path="url(#a)"><path fill="#fff" d="M0 0h117v72H0z"/><g clip-path="url(#b)"><path d="M714.5-129H-130v563.556h844.5V-129Z" fill="#1A73E8"/><path d="m-130-129 317.039 317.352M187.039-129.352-130 188M49.456-129v317M7.231-129v317M433 50.633h-563M433 8.367h-563M28.344 59.363c16.476 0 29.833-13.37 29.833-29.863 0-16.492-13.357-29.862-29.833-29.862C11.867-.362-1.49 13.008-1.49 29.5c0 16.493 13.356 29.863 29.833 29.863ZM-130 29.5h563M28.344-129v317" stroke="#fff" stroke-opacity=".3" stroke-width=".5"/><path clip-rule="evenodd" d="M27.992 71.062c23.126 0 41.873-18.765 41.873-41.914S51.118-12.767 27.992-12.767C4.866-12.767-13.881 6-13.881 29.148S4.866 71.062 27.992 71.062Z" stroke="#fff"/><path d="M27.992 50.431c11.743 0 21.262-9.529 21.262-21.283 0-11.755-9.52-21.284-21.262-21.284-11.743 0-21.263 9.53-21.263 21.284S16.25 50.43 27.992 50.43Z" stroke="#fff"/><path d="M27.992 44.99c8.74 0 15.826-7.093 15.826-15.842 0-8.75-7.086-15.842-15.826-15.842S12.165 20.4 12.165 29.148c0 8.75 7.086 15.842 15.827 15.842ZM46.414 39.808 28.399 71.041M9.547 39.806-8.467 8.574M27.992 7.864h36.03" stroke="#fff"/></g><g filter="url(#c)"><path d="M73.059 30.804c4 2.31 4 8.083 0 10.392L56.47 50.774c-4 2.309-9-.578-9-5.197V26.423c0-4.619 5-7.506 9-5.196l16.588 9.577Z" fill="#ECF3FE"/></g><g filter="url(#d)"><path d="M78 30.804c4 2.31 4 8.083 0 10.392L54 55.053c-4 2.31-9-.578-9-5.197V22.144c0-4.62 5-7.506 9-5.196l24 13.856Z" fill="#fff" fill-opacity=".3"/></g><g opacity=".9"><rect x="80" y="12" width="29" height="16" rx="4" fill="#fff"/><path d="M84.352 18.214h.957V16.63h1.441v1.584h1.32v1.232h-1.32v2.541c0 .25.055.436.165.561.11.125.279.187.506.187.14 0 .257-.018.352-.055.103-.037.213-.088.33-.154v1.375a2.39 2.39 0 0 1-.462.132 2.234 2.234 0 0 1-.517.055c-.565 0-1.008-.165-1.331-.495-.323-.337-.484-.8-.484-1.386v-2.76h-.957v-1.233ZM89.433 24v-5.786h1.441V24h-1.44Zm.726-6.776a.9.9 0 0 1-.66-.275.9.9 0 0 1-.275-.66.9.9 0 0 1 .275-.66.9.9 0 0 1 .66-.275.9.9 0 0 1 .66.275.9.9 0 0 1 .275.66.9.9 0 0 1-.275.66.9.9 0 0 1-.66.275Zm2.325 9.152v-8.162h1.353v.671h.088a1.77 1.77 0 0 1 .396-.418c.161-.132.352-.235.572-.308.227-.08.48-.12.759-.12.491 0 .927.116 1.309.351.388.235.696.58.924 1.034.227.455.34 1.016.34 1.683 0 .66-.113 1.221-.34 1.683-.228.455-.536.8-.924 1.034a2.446 2.446 0 0 1-1.31.352c-.44 0-.806-.084-1.1-.253-.285-.176-.494-.378-.626-.605h-.088l.088.858v2.2h-1.441Zm2.827-3.542c.278 0 .528-.062.748-.187.227-.125.403-.315.528-.572.132-.257.198-.58.198-.968 0-.389-.066-.711-.198-.968a1.255 1.255 0 0 0-.528-.572 1.49 1.49 0 0 0-.748-.187c-.279 0-.532.062-.76.187-.22.125-.395.315-.527.572-.125.257-.187.58-.187.968 0 .389.062.711.187.968.132.257.308.447.528.572.227.125.48.187.759.187Zm6.268 1.342c-.499 0-.928-.077-1.287-.23a2.174 2.174 0 0 1-.858-.66 2.373 2.373 0 0 1-.407-.969l1.375-.23c.059.263.191.468.396.615.205.14.466.21.781.21.271 0 .506-.049.704-.144.205-.103.308-.26.308-.473a.448.448 0 0 0-.132-.33 1.036 1.036 0 0 0-.374-.242 2.468 2.468 0 0 0-.572-.154l-.66-.12a2.759 2.759 0 0 1-.847-.298 1.678 1.678 0 0 1-.572-.56 1.506 1.506 0 0 1-.209-.804c0-.345.1-.649.297-.913.206-.264.477-.47.814-.616.345-.147.73-.22 1.155-.22.455 0 .843.062 1.166.187.33.117.594.293.792.528.198.235.33.524.396.87l-1.265.197a.831.831 0 0 0-.396-.484 1.413 1.413 0 0 0-.66-.143c-.271 0-.491.055-.66.165-.161.11-.242.238-.242.385a.47.47 0 0 0 .198.385c.132.103.345.183.638.242l.803.165c.565.117 1.001.312 1.309.583.308.264.462.65.462 1.155 0 .381-.11.715-.33 1.001a2.19 2.19 0 0 1-.891.671 3.153 3.153 0 0 1-1.232.231Z" fill="#1A73E8"/></g></g><defs><clipPath id="a"><path fill="#fff" d="M0 0h117v72H0z"/></clipPath><clipPath id="b"><path fill="#fff" transform="translate(-130 -129)" d="M0 0h563v317H0z"/></clipPath><filter id="c" x="39.471" y="14.414" width="44.588" height="47.172" filterUnits="userSpaceOnUse" color-interpolation-filters="sRGB"><feFlood flood-opacity="0" result="BackgroundImageFix"/><feColorMatrix in="SourceAlpha" values="0 0 0 0 0 0 0 0 0 0 0 0 0 0 0 0 0 0 127 0" result="hardAlpha"/><feMorphology radius="2" operator="dilate" in="SourceAlpha" result="effect1_dropShadow_4170_128"/><feOffset dy="2"/><feGaussianBlur stdDeviation="3"/><feColorMatrix values="0 0 0 0 0 0 0 0 0 0 0 0 0 0 0 0 0 0 0.15 0"/><feBlend in2="BackgroundImageFix" result="effect1_dropShadow_4170_128"/><feColorMatrix in="SourceAlpha" values="0 0 0 0 0 0 0 0 0 0 0 0 0 0 0 0 0 0 127 0" result="hardAlpha"/><feOffset dy="1"/><feGaussianBlur stdDeviation="1"/><feColorMatrix values="0 0 0 0 0 0 0 0 0 0 0 0 0 0 0 0 0 0 0.3 0"/><feBlend in2="effect1_dropShadow_4170_128" result="effect2_dropShadow_4170_128"/><feBlend in="SourceGraphic" in2="effect2_dropShadow_4170_128" result="shape"/></filter><filter id="d" x="37" y="8.135" width="52" height="55.731" filterUnits="userSpaceOnUse" color-interpolation-filters="sRGB"><feFlood flood-opacity="0" result="BackgroundImageFix"/><feBlend in="SourceGraphic" in2="BackgroundImageFix" result="shape"/><feGaussianBlur stdDeviation="4" result="effect1_foregroundBlur_4170_128"/></filter></defs></svg>