<svg xmlns="http://www.w3.org/2000/svg" width="57" height="26" fill="none"><path fill="#4285F4" stroke="#202124" stroke-miterlimit="10" stroke-width=".853" d="m37.835 6.974-2.932 3.704L33.063 13l-3.068-3.874a1.8 1.8 0 0 0-1.393-.645 1.8 1.8 0 0 0-1.393.645L24.14 13l-1.798 2.273-.04.05-.04.053-2.892 3.65-1.324 1.673q-.042.054-.084.103c-1.872 2.247-4.538 3.464-7.315 3.464-1.092 0-2.2-.188-3.284-.576C3.498 22.304 1 18.751 1 14.636v-3.272a3.74 3.74 0 1 0 7.482 0v3.272c0 1.36.982 1.858 1.406 2.01.418.15 1.48.386 2.33-.637L14.6 13l1.812-2.288.028-.035.02-.027 2.913-3.677 2.002-2.527q.023-.03.045-.055A9.27 9.27 0 0 1 28.606 1a9.27 9.27 0 0 1 7.185 3.392l.046.055 2.002 2.527z"/><path fill="#EA4335" stroke="#202124" stroke-miterlimit="10" stroke-width=".853" d="m18.045 5.304 1.324 1.673-2.912 3.677-.02.026-.029.036-1.811 2.288-2.382-3.008c-.85-1.024-1.91-.788-2.329-.638-.422.152-1.406.65-1.406 2.01A3.74 3.74 0 1 1 1 11.365C1 7.25 3.498 3.697 7.364 2.31c3.839-1.376 7.99-.242 10.597 2.886l.086.103zM22.342 15.272l-.039.05-.041.053q.041-.051.08-.102z"/><path fill="#34A853" stroke="#202124" stroke-miterlimit="10" stroke-width=".853" d="M16.41 10.713q.023-.03.05-.063l-.021.027zM56.206 11.364v3.272a3.74 3.74 0 1 0-7.481 0v-3.272c0-1.36-.983-1.859-1.407-2.01-.418-.15-1.48-.387-2.329.637L42.608 13l-1.812 2.288-.028.035-.02.026-2.912 3.678-2.003 2.527-.045.055A9.28 9.28 0 0 1 28.602 25a9.27 9.27 0 0 1-7.185-3.392q-.022-.028-.045-.055l-2.003-2.53 2.892-3.65.08-.101 1.799-2.273 3.067 3.874a1.8 1.8 0 0 0 1.393.645c.32 0 .92-.084 1.392-.645l3.068-3.874 1.81-2.286.027-.035.026-.034 2.907-3.67 1.324-1.673.086-.105c2.606-3.127 6.758-4.26 10.596-2.885 3.865 1.385 6.365 4.939 6.365 9.053z"/><path fill="#FBBC04" stroke="#202124" stroke-miterlimit="10" stroke-width=".853" d="M34.872 10.715q.026-.036.055-.07l-.026.034zM56.206 14.635c0 4.114-2.498 7.668-6.364 9.054a9.7 9.7 0 0 1-3.284.575c-2.775 0-5.441-1.217-7.313-3.463l-.086-.105-1.324-1.673 2.912-3.677.02-.026.029-.036 1.811-2.288 2.382 3.008c.85 1.024 1.912.788 2.329.638.422-.152 1.406-.651 1.406-2.01a3.74 3.74 0 1 1 7.482 0z"/></svg>