<svg width="20" height="20" fill="none" xmlns="http://www.w3.org/2000/svg"><path d="M10.006 18a7.81 7.81 0 0 1-3.11-.625 8.065 8.065 0 0 1-2.552-1.719 8.066 8.066 0 0 1-1.719-2.551A7.819 7.819 0 0 1 2 9.99c0-1.104.208-2.14.625-3.105a8.066 8.066 0 0 1 4.27-4.26A7.819 7.819 0 0 1 10.01 2a7.75 7.75 0 0 1 3.105.625 8.083 8.083 0 0 1 4.26 4.265A7.77 7.77 0 0 1 18 9.994a7.81 7.81 0 0 1-.625 3.11 8.066 8.066 0 0 1-1.719 2.552 8.084 8.084 0 0 1-2.546 1.719 7.77 7.77 0 0 1-3.104.625ZM10 16.5c1.694 0 3.153-.563 4.375-1.688 1.222-1.124 1.917-2.513 2.083-4.166A1.411 1.411 0 0 1 15.5 11h-3c-.412 0-.766-.147-1.06-.44A1.445 1.445 0 0 1 11 9.5v-1H7.5v-2c0-.412.147-.766.44-1.06C8.235 5.148 8.588 5 9 5h1v-.5c0-.194.035-.375.104-.542.07-.166.16-.312.271-.437a.731.731 0 0 0-.208-.021H10c-1.806 0-3.34.632-4.604 1.896C4.132 6.66 3.5 8.194 3.5 10H8c.833 0 1.542.292 2.125.875S11 12.167 11 13v1H8v2.188c.32.11.644.19.974.24.329.048.671.072 1.026.072Z" fill="#000"/></svg>