<svg width="20" height="20" fill="none" xmlns="http://www.w3.org/2000/svg"><path d="M10 18a7.848 7.848 0 0 1-3.125-.625 8.027 8.027 0 0 1-2.542-1.708 8.028 8.028 0 0 1-1.708-2.542A7.848 7.848 0 0 1 2 10c0-1.111.208-2.15.625-3.115a8.185 8.185 0 0 1 1.708-2.541A7.941 7.941 0 0 1 10 2c1 0 1.955.18 2.865.542.91.36 1.74.875 2.49 1.541l-2.272 2.209a4.654 4.654 0 0 0-1.416-.875A4.498 4.498 0 0 0 10 5.104c-1.347 0-2.486.483-3.417 1.448-.93.965-1.396 2.115-1.396 3.448 0 1.347.466 2.5 1.396 3.458.93.959 2.07 1.438 3.417 1.438 1.125 0 2.094-.316 2.906-.948.813-.632 1.31-1.441 1.49-2.427H10V8.54h7.5c.07.292.118.57.146.834.028.264.041.535.041.813 0 2.347-.708 4.236-2.125 5.666C14.146 17.284 12.293 18 10 18Z" fill="#000"/></svg>