<svg width="20" height="20" fill="none" xmlns="http://www.w3.org/2000/svg"><g clip-path="url(#a)"><path d="M4.5 17c-.417 0-.77-.146-1.063-.438A1.447 1.447 0 0 1 3 15.5v-11c0-.417.146-.77.438-1.063A1.447 1.447 0 0 1 4.5 3h11c.417 0 .77.146 1.063.438.291.291.437.645.437 1.062v11c0 .417-.146.77-.438 1.063A1.446 1.446 0 0 1 15.5 17h-11Zm0-1.5h2.667v-2.667H4.5V15.5Zm4.167 0h2.666v-2.667H8.667V15.5Zm4.166 0H15.5v-2.667h-2.667V15.5ZM4.5 11.333h2.667V8.667H4.5v2.666Zm4.167 0h2.666V8.667H8.667v2.666Zm4.166 0H15.5V8.667h-2.667v2.666ZM4.5 7.167h2.667V4.5H4.5v2.667Zm4.167 0h2.666V4.5H8.667v2.667Zm4.166 0H15.5V4.5h-2.667v2.667Z" fill="#000"/></g><defs><clipPath id="a"><path fill="#fff" d="M0 0h20v20H0z"/></clipPath></defs></svg>