<svg width="20" height="20" fill="none" xmlns="http://www.w3.org/2000/svg"><path d="m20 7.74-1.909 6.005h-1.936L14.248 7.74h1.592l1.282 4.686 1.286-4.686H20ZM11.273 8.871c-.375 0-.67.167-.885.499-.214.329-.321.788-.321 1.378 0 .59.107 1.05.321 1.383.215.33.51.494.885.494.379 0 .675-.165.89-.494.214-.332.322-.793.322-1.383s-.107-1.05-.322-1.378c-.215-.332-.511-.499-.89-.499Zm-2.777 1.877c0-.969.25-1.735.75-2.3.504-.569 1.18-.853 2.027-.853.85 0 1.526.284 2.027.853.504.565.756 1.331.756 2.3 0 .969-.252 1.737-.756 2.306-.5.564-1.176.847-2.027.847-.847 0-1.523-.283-2.027-.848-.5-.568-.75-1.336-.75-2.305ZM7.755 9.847v3.898h-1.56V10.09c0-.433-.063-.742-.188-.928-.121-.186-.321-.279-.6-.279-.286 0-.51.127-.67.38-.161.251-.242.6-.242 1.046v3.437h-1.56V5.402h1.56v3.239c.111-.333.3-.59.569-.772.268-.183.591-.274.97-.274.568 0 .997.19 1.287.569.29.375.434.936.434 1.683ZM0 8.046h1.785v1.957H0V8.046Zm0 3.731h1.785v1.968H0v-1.968Z" fill="#000"/></svg>