<svg width="20" height="20" fill="none" xmlns="http://www.w3.org/2000/svg"><g clip-path="url(#a)"><path d="M10 18a7.796 7.796 0 0 1-3.104-.625 8.28 8.28 0 0 1-2.563-1.708 8.28 8.28 0 0 1-1.708-2.563A7.797 7.797 0 0 1 2 10a7.7 7.7 0 0 1 .625-3.104 8.141 8.141 0 0 1 1.75-2.542 8.284 8.284 0 0 1 2.604-1.729C7.98 2.208 9.042 2 10.167 2c1.083 0 2.097.188 3.041.563a7.887 7.887 0 0 1 2.5 1.541 7.154 7.154 0 0 1 1.667 2.292c.417.875.625 1.812.625 2.812 0 1.334-.465 2.466-1.396 3.396-.93.93-2.062 1.396-3.396 1.396h-1.416a.442.442 0 0 0-.292.104.336.336 0 0 0-.125.271c0 .208.104.382.313.52.208.14.312.508.312 1.105 0 .514-.188.98-.563 1.396-.374.403-.854.604-1.437.604Zm-4.5-7.25c.347 0 .639-.118.875-.354.25-.25.375-.549.375-.896s-.125-.639-.375-.875A1.156 1.156 0 0 0 5.5 8.25c-.347 0-.646.125-.896.375a1.189 1.189 0 0 0-.354.875c0 .347.118.646.354.896.25.236.549.354.896.354Zm2.5-3c.347 0 .639-.118.875-.354.25-.25.375-.549.375-.896s-.125-.639-.375-.875A1.156 1.156 0 0 0 8 5.25c-.347 0-.646.125-.896.375a1.189 1.189 0 0 0-.354.875c0 .347.118.646.354.896.25.236.549.354.896.354Zm4 0c.347 0 .639-.118.875-.354.25-.25.375-.549.375-.896s-.125-.639-.375-.875A1.156 1.156 0 0 0 12 5.25c-.347 0-.646.125-.896.375a1.189 1.189 0 0 0-.354.875c0 .347.118.646.354.896.25.236.549.354.896.354Zm2.5 3c.347 0 .639-.118.875-.354.25-.25.375-.549.375-.896s-.125-.639-.375-.875a1.156 1.156 0 0 0-.875-.375c-.347 0-.646.125-.896.375a1.189 1.189 0 0 0-.354.875c0 .347.118.646.354.896.25.236.549.354.896.354ZM10 16.5c.153 0 .27-.056.354-.167.097-.125.146-.236.146-.333 0-.222-.104-.417-.313-.583-.208-.167-.312-.514-.312-1.042s.18-.972.542-1.333a1.882 1.882 0 0 1 1.354-.542h1.437c.917 0 1.695-.32 2.334-.958.639-.64.958-1.417.958-2.334 0-1.597-.618-2.944-1.854-4.041C13.424 4.056 11.93 3.5 10.166 3.5c-1.86 0-3.437.632-4.729 1.896C4.146 6.66 3.5 8.194 3.5 10s.632 3.34 1.896 4.604C6.66 15.868 8.194 16.5 10 16.5Z" fill="#000"/></g><defs><clipPath id="a"><path fill="#fff" d="M0 0h20v20H0z"/></clipPath></defs></svg>