<svg width="20" height="20" fill="none" xmlns="http://www.w3.org/2000/svg"><path d="M7.5 13H9V7H7.5v6Zm3.5 0h1.5V7H11v6Zm-.994 5a7.81 7.81 0 0 1-3.11-.625 8.065 8.065 0 0 1-2.552-1.719 8.066 8.066 0 0 1-1.719-2.551A7.819 7.819 0 0 1 2 9.99c0-1.104.208-2.14.625-3.105a8.066 8.066 0 0 1 4.27-4.26A7.819 7.819 0 0 1 10.01 2a7.75 7.75 0 0 1 3.105.625 8.083 8.083 0 0 1 4.26 4.265A7.77 7.77 0 0 1 18 9.994a7.81 7.81 0 0 1-.625 3.11 8.066 8.066 0 0 1-1.719 2.552 8.084 8.084 0 0 1-2.546 1.719 7.77 7.77 0 0 1-3.104.625ZM10 16.5c1.806 0 3.34-.632 4.604-1.896C15.868 13.34 16.5 11.806 16.5 10s-.632-3.34-1.896-4.604C13.34 4.132 11.806 3.5 10 3.5s-3.34.632-4.604 1.896C4.132 6.66 3.5 8.194 3.5 10s.632 3.34 1.896 4.604C6.66 15.868 8.194 16.5 10 16.5Z" fill="#000"/></svg>