<svg width="20" height="20" fill="none" xmlns="http://www.w3.org/2000/svg"><path d="M5.5 15.5h1.063l7.812-7.813-1.063-1.062L5.5 14.438V15.5ZM4 17v-3.188L14.375 3.438A1.443 1.443 0 0 1 15.435 3c.196 0 .384.035.565.104.18.07.347.18.5.333L17.563 4.5c.152.153.263.32.333.5s.104.365.104.553c0 .2-.035.392-.105.574-.07.181-.18.348-.332.498L7.188 17H4Zm9.834-9.834-.521-.541 1.062 1.063-.54-.522ZM5.5 10c0-1.255-.436-2.318-1.31-3.19C3.319 5.935 2.256 5.5 1 5.5c1.255 0 2.318-.436 3.19-1.31C5.065 3.319 5.5 2.256 5.5 1c0 1.255.436 2.318 1.31 3.19.872.874 1.935 1.31 3.19 1.31-1.255 0-2.318.436-3.19 1.31C5.935 7.681 5.5 8.744 5.5 10Z" fill="#000"/></svg>