<svg width="186" height="50" fill="none" xmlns="http://www.w3.org/2000/svg"><path fill="#FACC15" d="M.5 0h81v16H.5zM82.5 0h42v16h-42z"/><path fill="#D190FF" d="M42.5 17h10v16h-10zM53.5 17h84v16h-84zM138.5 17h39v16h-39z"/><path fill="#37BE5F" d="M56.5 34h74v16h-74zM131.5 34h54v16h-54z"/><path stroke="#1F1F1F" stroke-width="2" d="M1.5 1h79v14h-79zM132.5 35h52v14h-52z"/><g filter="url(#a)"><path d="m78.726 6.956 49.482 32.134" stroke="#1F1F1F" stroke-width="2" stroke-linecap="round"/><circle cx="80.403" cy="8.045" r="2" transform="rotate(33 80.403 8.045)" fill="#fff" stroke="#1F1F1F" stroke-width="2"/><circle cx="132.401" cy="41.813" r="2" transform="rotate(33 132.401 41.813)" fill="#fff" stroke="#1F1F1F" stroke-width="2"/><path d="M129.239 40.749a1 1 0 0 0 .904-1.391l-2.93-6.89a1 1 0 0 0-1.759-.154l-4.557 7.016a1 1 0 0 0 .856 1.545l7.486-.126Z" fill="#1F1F1F"/></g><defs><filter id="a" x="70.075" y="-2.459" width="69.326" height="54.274" filterUnits="userSpaceOnUse" color-interpolation-filters="sRGB"><feFlood flood-opacity="0" result="BackgroundImageFix"/><feColorMatrix in="SourceAlpha" values="0 0 0 0 0 0 0 0 0 0 0 0 0 0 0 0 0 0 127 0" result="hardAlpha"/><feMorphology radius="1" operator="dilate" in="SourceAlpha" result="effect1_dropShadow_4690_314721"/><feOffset dy="1"/><feGaussianBlur stdDeviation="1.5"/><feColorMatrix values="0 0 0 0 0 0 0 0 0 0 0 0 0 0 0 0 0 0 0.15 0"/><feBlend in2="BackgroundImageFix" result="effect1_dropShadow_4690_314721"/><feColorMatrix in="SourceAlpha" values="0 0 0 0 0 0 0 0 0 0 0 0 0 0 0 0 0 0 127 0" result="hardAlpha"/><feOffset dy="1"/><feGaussianBlur stdDeviation="1"/><feColorMatrix values="0 0 0 0 0 0 0 0 0 0 0 0 0 0 0 0 0 0 0.3 0"/><feBlend in2="effect1_dropShadow_4690_314721" result="effect2_dropShadow_4690_314721"/><feBlend in="SourceGraphic" in2="effect2_dropShadow_4690_314721" result="shape"/></filter></defs></svg>