<svg width="160" height="66" fill="none" xmlns="http://www.w3.org/2000/svg"><mask id="b" fill="#fff"><path d="M0 0h160v66H0V0Z"/></mask><path d="M0 0h160v66H0V0Z" fill="url(#a)" fill-opacity=".15"/><path d="M160 66v4h1v-4h-1ZM0 66h-1v4h1v-4ZM159 0v66h2V0h-2Zm1 62H0v8h160v-8ZM1 66V0h-2v66h2Z" fill="#FF4896" mask="url(#b)"/><path d="M69.042 33.667V35H62.89v-9.864h1.53v8.531h4.622Zm3.828 1.456c-1.435 0-2.481-.861-2.481-2.215 0-1.333.998-2.105 2.768-2.215l2.017-.123v-.65c0-.813-.52-1.27-1.525-1.27-.82 0-1.387.307-1.551.847h-1.422c.15-1.25 1.353-2.064 3.042-2.064 1.866 0 2.919.93 2.919 2.488V35h-1.415v-1.053h-.116c-.445.752-1.258 1.176-2.236 1.176Zm.376-1.183c1.108 0 1.928-.724 1.928-1.681v-.643l-1.819.123c-1.025.069-1.49.43-1.49 1.108 0 .69.581 1.093 1.381 1.093Zm9.427 1.183c-1.04 0-1.907-.478-2.352-1.299h-.11V35h-1.414V24.664h1.47v4.088h.116c.396-.807 1.271-1.306 2.29-1.306 1.887 0 3.076 1.484 3.076 3.842 0 2.338-1.196 3.835-3.076 3.835Zm-.424-6.419c-1.23 0-2.003.991-2.01 2.584.007 1.593.773 2.577 2.01 2.577 1.244 0 1.99-.97 1.99-2.577 0-1.606-.746-2.584-1.99-2.584ZM92.4 33.011h1.415c-.32 1.312-1.524 2.133-3.226 2.133-2.133 0-3.439-1.47-3.439-3.842 0-2.359 1.333-3.87 3.432-3.87 2.071 0 3.322 1.416 3.322 3.74v.506h-5.257v.068c.048 1.347.807 2.194 1.983 2.194.889 0 1.497-.328 1.77-.93Zm-1.825-4.382c-1.087 0-1.846.793-1.928 1.99h3.76c-.034-1.204-.745-1.99-1.832-1.99ZM95.736 35V24.664h1.47V35h-1.47ZM70.805 54v-1.682H66.68v-1.113a115.448 115.448 0 0 1 3.521-5.66h1.87v5.66h1.165v1.113H72.07V54h-1.265Zm-2.866-2.853v.081h2.883v-4.576h-.076a96.596 96.596 0 0 0-2.806 4.495Zm7.536 2.94a.837.837 0 0 1-.862-.843c0-.474.37-.844.862-.844.498 0 .86.37.86.844 0 .475-.362.844-.86.844Zm2.537-6.093c0-1.553 1.2-2.654 2.906-2.654 1.588 0 2.73 1.013 2.73 2.402 0 .979-.427 1.676-1.91 3.164l-1.863 1.875v.1h3.902V54h-5.695v-.89l2.895-3.012c1.072-1.12 1.353-1.541 1.353-2.227 0-.82-.557-1.447-1.494-1.447-.955 0-1.582.633-1.582 1.57h-1.242Zm10.441 6.211c-1.681 0-2.865-1.025-2.947-2.496h1.254c.093.844.78 1.4 1.699 1.4 1.025 0 1.717-.738 1.717-1.84 0-1.066-.686-1.78-1.682-1.78-.75 0-1.342.35-1.652.937H85.64l.474-4.881h4.904v1.113h-3.884l-.246 2.596h.1c.386-.522 1.013-.797 1.868-.797 1.43 0 2.602 1.102 2.602 2.79 0 1.757-1.213 2.958-3.006 2.958Zm7.799-4.787c0-1.108 1.037-1.904 2.479-1.904 1.435 0 2.373.668 2.496 1.77h-1.207c-.118-.475-.575-.786-1.29-.786-.703 0-1.236.346-1.236.861 0 .393.322.639 1.014.803l1.06.246c1.213.282 1.782.803 1.782 1.729 0 1.183-1.12 1.986-2.643 1.986-1.517 0-2.508-.685-2.62-1.793h1.26c.159.498.628.809 1.39.809.785 0 1.341-.364 1.341-.885 0-.398-.299-.656-.937-.809l-1.114-.263c-1.213-.282-1.775-.82-1.775-1.764Z" fill="#FF4896"/><mask id="c" style="mask-type:alpha" maskUnits="userSpaceOnUse" x="6" y="42" width="16" height="16"><path fill="#D9D9D9" d="M6 42h16v16H6z"/></mask><g mask="url(#c)"><path d="M9.9 53.4a6.955 6.955 0 0 1 1.9-1.025c.7-.25 1.433-.375 2.2-.375.767 0 1.5.125 2.2.375.7.25 1.334.591 1.9 1.025.39-.456.692-.972.909-1.55a5.225 5.225 0 0 0 .325-1.85c0-1.478-.52-2.736-1.559-3.775-1.039-1.04-2.297-1.559-3.775-1.559-1.478 0-2.736.52-3.775 1.559C9.186 47.264 8.667 48.522 8.667 50c0 .655.108 1.272.325 1.85.216.578.52 1.094.908 1.55Zm4.1-2.734c-.655 0-1.208-.225-1.658-.675-.45-.45-.675-1.002-.675-1.658 0-.655.225-1.208.675-1.658.45-.45 1.003-.675 1.658-.675.656 0 1.209.225 1.659.675.45.45.675 1.003.675 1.658 0 .656-.226 1.208-.675 1.658-.45.45-1.003.675-1.659.675Zm0 6a6.491 6.491 0 0 1-2.6-.525 6.733 6.733 0 0 1-2.117-1.425A6.732 6.732 0 0 1 7.86 52.6a6.492 6.492 0 0 1-.526-2.6c0-.922.175-1.79.526-2.6a6.733 6.733 0 0 1 1.425-2.117c.6-.6 1.305-1.075 2.116-1.425a6.491 6.491 0 0 1 2.6-.525c.922 0 1.79.175 2.6.525.811.35 1.517.825 2.117 1.425.6.6 1.075 1.306 1.425 2.117.35.81.525 1.678.525 2.6 0 .922-.175 1.789-.525 2.6a6.732 6.732 0 0 1-1.425 2.116c-.6.6-1.306 1.075-2.117 1.425a6.492 6.492 0 0 1-2.6.525Z" fill="#FF4896"/></g><defs><linearGradient id="a" x1="80" y1="0" x2="80" y2="66" gradientUnits="userSpaceOnUse"><stop stop-color="#FF7DD2" stop-opacity="0"/><stop offset=".85" stop-color="#FF7DD2"/></linearGradient></defs></svg>