<svg width="192" height="86" fill="none" xmlns="http://www.w3.org/2000/svg"><g clip-path="url(#a)"><path fill="#E1E3E1" d="M35.5 41h128v2h-128zM33.5 38h2v8h-2zM163.5 38h2v8h-2z"/><g clip-path="url(#b)"><path fill="#fff" d="M45.5 34h68v16h-68z"/><path opacity=".4" fill="#80DA88" d="M45.5 34h68v16h-68z"/><path fill="#80DA88" d="M51.5 34h62v16h-62z"/></g></g><path fill="#E1E3E1" d="M22.5 59h167v2h-167zM20.5 56h2v8h-2zM189.5 56h2v8h-2z"/><g clip-path="url(#c)"><path fill="#fff" d="M71.5 52h83v16h-83z"/><path opacity=".4" fill="#FFE07C" d="M71.5 52h83v16h-83z"/><path fill="#FFE07C" d="M77.5 52h77v16h-77z"/></g><path fill="#E1E3E1" d="M82.5 77h104v2h-104zM80.5 74h2v8h-2zM186.5 74h2v8h-2z"/><g clip-path="url(#d)"><path fill="#fff" d="M102.5 70h44v16h-44z"/><path opacity=".4" fill="#80DA88" d="M102.5 70h44v16h-44z"/><path fill="#80DA88" d="M113.5 70h33v16h-33z"/></g><path fill="#E1E3E1" d="M2.5 23h150v2H2.5zM.5 20h2v8h-2zM152.5 20h2v8h-2z"/><g clip-path="url(#e)"><path fill="#fff" d="M10.5 16h142v16h-142z"/><path opacity=".4" fill="#D9BAFD" d="M10.5 16h142v16h-142z"/><path fill="#D9BAFD" d="M14.5 16h138v16h-138z"/></g><path stroke="#1F1F1F" stroke-width="2" d="M34.5 35h130v14h-130z"/><g filter="url(#f)"><path d="M65.5 7a4 4 0 0 1 4-4h41a4 4 0 0 1 4 4v16a4 4 0 0 1-4 4h-41a4 4 0 0 1-4-4V7Z" fill="#1F1F1F"/><path d="M79.042 18.667V20H72.89v-9.864h1.53v8.531h4.622Zm3.828 1.456c-1.435 0-2.481-.861-2.481-2.215 0-1.333.998-2.105 2.768-2.215l2.017-.123v-.65c0-.813-.52-1.27-1.525-1.27-.82 0-1.387.307-1.551.847h-1.422c.15-1.25 1.353-2.064 3.042-2.064 1.866 0 2.919.93 2.919 2.488V20h-1.415v-1.053h-.116c-.445.752-1.258 1.176-2.236 1.176Zm.376-1.183c1.108 0 1.928-.724 1.928-1.681v-.643l-1.819.123c-1.025.069-1.49.43-1.49 1.108 0 .69.581 1.093 1.381 1.093Zm9.427 1.183c-1.04 0-1.907-.479-2.352-1.299h-.11V20h-1.414V9.664h1.47v4.088h.116c.396-.807 1.271-1.306 2.29-1.306 1.887 0 3.076 1.484 3.076 3.842 0 2.338-1.196 3.835-3.076 3.835Zm-.424-6.419c-1.23 0-2.003.991-2.01 2.584.007 1.593.773 2.577 2.01 2.577 1.244 0 1.99-.97 1.99-2.577 0-1.606-.746-2.584-1.99-2.584Zm10.151 4.307h1.415c-.321 1.312-1.524 2.133-3.226 2.133-2.133 0-3.439-1.47-3.439-3.842 0-2.359 1.333-3.87 3.432-3.87 2.071 0 3.322 1.416 3.322 3.74v.506h-5.257v.068c.048 1.347.807 2.194 1.983 2.194.889 0 1.497-.328 1.77-.93Zm-1.825-4.382c-1.087 0-1.846.793-1.928 1.99h3.76c-.034-1.204-.745-1.99-1.832-1.99ZM105.736 20V9.664h1.47V20h-1.47Z" fill="#fff"/><path fill-rule="evenodd" clip-rule="evenodd" d="M100.95 35.142 96 30.192l-3.5-3.586-2.864.05 9.9 9.9 1.414-1.414Z" fill="#1F1F1F"/><circle cx="3" cy="3" r="3" transform="scale(-1 1) rotate(-45 -9.47 142.842)" fill="#1F1F1F"/><rect x="47.5" y="8.71" width="12" height="12" rx="6" fill="#fff"/><mask id="g" style="mask-type:alpha" maskUnits="userSpaceOnUse" x="45" y="6" width="17" height="17"><path fill="#D9D9D9" d="M45.5 6.71h16v16h-16z"/></mask><g mask="url(#g)"><path d="M49.4 18.11a6.956 6.956 0 0 1 1.9-1.025c.7-.25 1.434-.375 2.2-.375.767 0 1.5.125 2.2.375.7.25 1.333.591 1.9 1.025.39-.456.692-.973.908-1.55a5.224 5.224 0 0 0 .325-1.85c0-1.478-.519-2.737-1.558-3.775-1.039-1.04-2.297-1.559-3.775-1.559-1.478 0-2.736.52-3.775 1.559-1.039 1.038-1.558 2.297-1.558 3.775 0 .655.108 1.272.325 1.85.217.577.52 1.094.908 1.55Zm4.1-2.734c-.655 0-1.208-.225-1.658-.675-.45-.45-.675-1.003-.675-1.658 0-.656.225-1.208.675-1.658.45-.45 1.003-.675 1.658-.675.656 0 1.209.225 1.658.675.45.45.675 1.002.675 1.658 0 .655-.224 1.208-.675 1.658-.45.45-1.002.675-1.658.675Zm0 6a6.491 6.491 0 0 1-2.6-.525 6.733 6.733 0 0 1-2.117-1.425 6.733 6.733 0 0 1-1.425-2.116 6.491 6.491 0 0 1-.524-2.6c0-.923.174-1.79.524-2.6a6.733 6.733 0 0 1 1.425-2.117c.6-.6 1.306-1.075 2.117-1.425a6.491 6.491 0 0 1 2.6-.525c.922 0 1.79.175 2.6.525.811.35 1.517.825 2.117 1.425.6.6 1.075 1.306 1.425 2.117.35.81.525 1.677.525 2.6 0 .922-.175 1.788-.525 2.6a6.733 6.733 0 0 1-1.425 2.116c-.6.6-1.306 1.075-2.117 1.425a6.492 6.492 0 0 1-2.6.525Zm0-1.333c.59 0 1.145-.086 1.667-.258.522-.173 1-.42 1.433-.742a5.018 5.018 0 0 0-1.433-.742 5.288 5.288 0 0 0-1.667-.258c-.589 0-1.144.086-1.666.258-.523.173-1 .42-1.434.742.434.322.911.57 1.434.742a5.286 5.286 0 0 0 1.666.258Zm0-6a.971.971 0 0 0 .717-.283.971.971 0 0 0 .283-.717.971.971 0 0 0-.283-.717.971.971 0 0 0-.717-.283.971.971 0 0 0-.717.283.971.971 0 0 0-.283.717c0 .289.095.528.283.717a.971.971 0 0 0 .717.283Z" fill="#1F1F1F"/></g></g><defs><clipPath id="a"><rect x="33.5" y="34" width="132" height="16" rx="8" fill="#fff"/></clipPath><clipPath id="b"><path fill="#fff" transform="translate(45.5 34)" d="M0 0h68v16H0z"/></clipPath><clipPath id="c"><path fill="#fff" transform="translate(71.5 52)" d="M0 0h83v16H0z"/></clipPath><clipPath id="d"><path fill="#fff" transform="translate(102.5 70)" d="M0 0h44v16H0z"/></clipPath><clipPath id="e"><path fill="#fff" transform="translate(10.5 16)" d="M0 0h142v16H0z"/></clipPath><filter id="f" x="41.5" y="0" width="96" height="47.213" filterUnits="userSpaceOnUse" color-interpolation-filters="sRGB"><feFlood flood-opacity="0" result="BackgroundImageFix"/><feColorMatrix in="SourceAlpha" values="0 0 0 0 0 0 0 0 0 0 0 0 0 0 0 0 0 0 127 0" result="hardAlpha"/><feMorphology radius="1" operator="dilate" in="SourceAlpha" result="effect1_dropShadow_4690_314478"/><feOffset dy="1"/><feGaussianBlur stdDeviation="1.5"/><feColorMatrix values="0 0 0 0 0 0 0 0 0 0 0 0 0 0 0 0 0 0 0.15 0"/><feBlend in2="BackgroundImageFix" result="effect1_dropShadow_4690_314478"/><feColorMatrix in="SourceAlpha" values="0 0 0 0 0 0 0 0 0 0 0 0 0 0 0 0 0 0 127 0" result="hardAlpha"/><feOffset dy="1"/><feGaussianBlur stdDeviation="1"/><feColorMatrix values="0 0 0 0 0 0 0 0 0 0 0 0 0 0 0 0 0 0 0.3 0"/><feBlend in2="effect1_dropShadow_4690_314478" result="effect2_dropShadow_4690_314478"/><feBlend in="SourceGraphic" in2="effect2_dropShadow_4690_314478" result="shape"/></filter></defs></svg>