<svg width="20" height="20" fill="none" xmlns="http://www.w3.org/2000/svg"><g clip-path="url(#a)"><path d="M10 14.5c1 0 1.833-.34 2.5-1.02.667-.681 1-1.508 1-2.48 0-.958-.333-1.778-1-2.458C11.833 7.847 11 7.5 10 7.5s-1.833.347-2.5 1.042c-.667.68-1 1.507-1 2.479 0 .958.333 1.778 1 2.458.667.68 1.5 1.021 2.5 1.021Zm0-1.5c-.583 0-1.063-.194-1.438-.583-.374-.39-.562-.868-.562-1.438 0-.555.188-1.02.563-1.396C8.937 9.194 9.416 9 10 9c.583 0 1.063.194 1.438.583.374.375.562.84.562 1.396 0 .57-.188 1.049-.563 1.438-.374.389-.854.583-1.437.583Zm-6.5 4A1.492 1.492 0 0 1 2 15.5v-9c0-.403.146-.75.438-1.042C2.743 5.153 3.098 5 3.5 5H6l1.5-2h5L14 5h2.5c.417 0 .77.153 1.063.458.291.292.437.64.437 1.042v9c0 .403-.146.757-.438 1.063A1.446 1.446 0 0 1 16.5 17h-13Zm0-1.5h13v-9h-3.25l-1.5-2h-3.5l-1.5 2H3.5v9Z" fill="#000"/></g><defs><clipPath id="a"><path fill="#fff" d="M0 0h20v20H0z"/></clipPath></defs></svg>