<svg width="20" height="20" fill="none" xmlns="http://www.w3.org/2000/svg"><path d="M10 18c-1.889-.528-3.361-1.639-4.417-3.333C4.528 12.972 4 11.174 4 9.27V4.5L10 2l6 2.5v4.77c0 1-.153 2.022-.458 3.063a7.722 7.722 0 0 1-1.48 2.792l-2.538-2.542c-.238.153-.482.26-.732.323S10.278 13 10 13a2.893 2.893 0 0 1-2.125-.875A2.893 2.893 0 0 1 7 10c0-.833.292-1.542.875-2.125A2.893 2.893 0 0 1 10 7c.833 0 1.542.292 2.125.875S13 9.167 13 10c0 .278-.035.542-.104.794-.07.252-.174.494-.313.727l1.146 1.146c.236-.542.424-1.098.563-1.667a7.27 7.27 0 0 0 .208-1.73V5.5L10 3.625 5.5 5.5v3.77c0 1.46.392 2.872 1.177 4.24.785 1.369 1.892 2.344 3.323 2.928a4.153 4.153 0 0 0 1.073-.521c.326-.223.635-.473.927-.75l1.063 1.083a9.17 9.17 0 0 1-1.428 1.063A6.186 6.186 0 0 1 10 18Zm.004-6.5c.414 0 .767-.147 1.059-.442.291-.294.437-.649.437-1.062 0-.414-.147-.767-.442-1.059A1.456 1.456 0 0 0 9.996 8.5c-.414 0-.767.147-1.059.442a1.456 1.456 0 0 0-.437 1.062c0 .414.147.767.442 1.059.294.291.649.437 1.062.437Z" fill="#000"/></svg>