<svg width="20" height="20" fill="none" xmlns="http://www.w3.org/2000/svg"><path d="M9.25 17v-6.188h-.188a6.046 6.046 0 0 1-4.23-1.73A6.003 6.003 0 0 1 3 4.75V3.001h1.751c.792 0 1.549.15 2.27.448a6.079 6.079 0 0 1 1.938 1.281c.403.39.74.823 1.01 1.302.272.48.476.983.615 1.51a5.23 5.23 0 0 1 2.042-1.697 6.045 6.045 0 0 1 2.625-.594H17V7c0 .816-.156 1.6-.469 2.351a5.774 5.774 0 0 1-1.364 1.982 6.217 6.217 0 0 1-1.85 1.125 5.818 5.818 0 0 1-2.13.396h-.437V17h-1.5Zm0-7.75c0-.639-.108-1.26-.323-1.865a4.178 4.178 0 0 0-2.562-2.562A5.515 5.515 0 0 0 4.5 4.5c0 .639.108 1.26.323 1.865a4.178 4.178 0 0 0 2.562 2.562 5.515 5.515 0 0 0 1.865.323Zm1.5 2.25c.639 0 1.26-.108 1.865-.323a4.178 4.178 0 0 0 2.562-2.562A5.515 5.515 0 0 0 15.5 6.75c-.639 0-1.26.108-1.865.323a4.178 4.178 0 0 0-2.562 2.562 5.515 5.515 0 0 0-.323 1.865Z" fill="#000"/></svg>