<svg width="20" height="20" fill="none" xmlns="http://www.w3.org/2000/svg"><g clip-path="url(#a)"><path d="m10 19-3-3H4.5A1.492 1.492 0 0 1 3 14.5v-11c0-.403.146-.75.438-1.042C3.743 2.153 4.098 2 4.5 2H9v1.5H4.5v11h3.104L10 16.896l2.375-2.396H15.5V11H17v3.5c0 .403-.146.757-.438 1.063A1.446 1.446 0 0 1 15.5 16H13l-3 3Zm4.5-9c0-1.25-.438-2.313-1.313-3.188C12.313 5.938 11.25 5.5 10 5.5c1.25 0 2.313-.438 3.188-1.313C14.062 3.313 14.5 2.25 14.5 1c0 1.25.438 2.313 1.313 3.188C16.686 5.063 17.75 5.5 19 5.5c-1.25 0-2.313.438-3.188 1.313C14.938 7.688 14.5 8.75 14.5 10Z" fill="#000"/></g><defs><clipPath id="a"><path fill="#fff" d="M0 0h20v20H0z"/></clipPath></defs></svg>