<svg width="20" height="20" fill="none" xmlns="http://www.w3.org/2000/svg"><g clip-path="url(#a)"><path d="M3.5 16c-.417 0-.77-.146-1.063-.438A1.447 1.447 0 0 1 2 14.5v-9c0-.417.146-.77.438-1.063A1.447 1.447 0 0 1 3.5 4h13c.417 0 .77.146 1.063.438.291.291.437.645.437 1.062v9c0 .417-.146.77-.438 1.063A1.446 1.446 0 0 1 16.5 16h-13Zm0-1.5h13V7h-13v7.5Zm2.75-1-1.063-1.063 1.688-1.687-1.688-1.688L6.25 8 9 10.75 6.25 13.5Zm3.75 0V12h5v1.5h-5Z" fill="#000"/></g><defs><clipPath id="a"><path fill="#fff" d="M0 0h20v20H0z"/></clipPath></defs></svg>