<svg width="20" height="20" fill="none" xmlns="http://www.w3.org/2000/svg"><g clip-path="url(#a)"><path d="M10 18a7.796 7.796 0 0 1-3.104-.625 8.28 8.28 0 0 1-2.563-1.708 8.28 8.28 0 0 1-1.708-2.563A7.797 7.797 0 0 1 2 10a7.7 7.7 0 0 1 .625-3.104 8.027 8.027 0 0 1 4.27-4.271A7.797 7.797 0 0 1 10 2a7.7 7.7 0 0 1 3.104.625c.972.417 1.82.993 2.542 1.73a7.86 7.86 0 0 1 1.729 2.54A7.7 7.7 0 0 1 18 10a7.797 7.797 0 0 1-.625 3.104 8.027 8.027 0 0 1-4.27 4.27 7.7 7.7 0 0 1-3.105.626Zm-.75-1.542V3.542c-1.625.194-2.993.902-4.104 2.125C4.049 6.875 3.5 8.319 3.5 10c0 1.68.549 3.132 1.646 4.354 1.11 1.209 2.479 1.91 4.104 2.104Zm1.5 0a6.666 6.666 0 0 0 1.333-.291c.43-.153.84-.348 1.23-.584H10.75v.875Zm0-2.375h4.292c.11-.152.215-.305.312-.458.111-.153.215-.306.313-.458H10.75v.916Zm0-2.416h5.52c.043-.153.077-.306.105-.459l.083-.458H10.75v.917Zm0-2.417h5.708l-.083-.458a5.436 5.436 0 0 0-.104-.459H10.75v.917Zm0-2.417h4.917a3.796 3.796 0 0 0-.313-.458 8.993 8.993 0 0 0-.312-.458H10.75v.916Zm0-2.416h2.563a5.778 5.778 0 0 0-1.23-.563 5.841 5.841 0 0 0-1.333-.312v.875Z" fill="#000"/></g><defs><clipPath id="a"><path fill="#fff" d="M0 0h20v20H0z"/></clipPath></defs></svg>