<svg width="117" height="72" fill="none" xmlns="http://www.w3.org/2000/svg"><g clip-path="url(#a)"><path fill="#fff" d="M0 0h117v72H0z"/><g clip-path="url(#b)"><path d="M714.5-129H-130v563.556h844.5V-129Z" fill="#1A73E8"/><path d="m-130-129 317.039 317.352M187.039-129.352-130 188M49.456-129v317M7.231-129v317M433 50.633h-563M433 8.367h-563M28.344 59.363c16.476 0 29.833-13.37 29.833-29.863 0-16.493-13.357-29.863-29.833-29.863C11.867-.363-1.49 13.007-1.49 29.5c0 16.493 13.356 29.863 29.833 29.863ZM-130 29.5h563M28.344-129v317" stroke="#fff" stroke-opacity=".3" stroke-width=".5"/><path clip-rule="evenodd" d="M27.992 71.062c23.126 0 41.873-18.765 41.873-41.914S51.118-12.767 27.992-12.767C4.866-12.767-13.881 6-13.881 29.148S4.866 71.062 27.992 71.062Z" stroke="#fff"/><path d="M27.992 50.431c11.743 0 21.262-9.529 21.262-21.283 0-11.755-9.52-21.284-21.262-21.284-11.743 0-21.263 9.53-21.263 21.284S16.25 50.43 27.992 50.43Z" stroke="#fff"/><path d="M27.992 44.99c8.74 0 15.826-7.093 15.826-15.842 0-8.75-7.086-15.842-15.826-15.842s-15.827 7.093-15.827 15.842 7.086 15.841 15.827 15.841ZM46.414 39.808 28.399 71.041M9.547 39.806-8.467 8.573M27.992 7.864h36.03" stroke="#fff"/></g><g filter="url(#c)"><path d="M73.059 30.804c4 2.31 4 8.083 0 10.392L56.47 50.773c-4 2.31-9-.577-9-5.196V26.423c0-4.619 5-7.506 9-5.196l16.588 9.577Z" fill="#ECF3FE"/></g><g filter="url(#d)"><path d="M78 30.804c4 2.31 4 8.083 0 10.392L54 55.053c-4 2.309-9-.578-9-5.197V22.144c0-4.62 5-7.506 9-5.197l24 13.857Z" fill="#fff" fill-opacity=".3"/></g><g opacity=".9"><rect x="79" y="12" width="30" height="16" rx="4" fill="#fff"/><path d="M83.803 24v-5.786h1.353v.704h.088c.169-.271.403-.484.704-.638.3-.161.638-.242 1.012-.242.667 0 1.173.202 1.518.605.345.396.517.953.517 1.672V24h-1.441v-3.487c0-.367-.092-.645-.275-.836-.176-.198-.425-.297-.748-.297-.264 0-.495.07-.693.209a1.28 1.28 0 0 0-.44.539 1.879 1.879 0 0 0-.154.781V24h-1.441Zm9.254.176c-.58 0-1.082-.125-1.507-.374a2.536 2.536 0 0 1-.99-1.067c-.235-.462-.352-1.005-.352-1.628 0-.63.121-1.173.363-1.628.25-.462.59-.818 1.023-1.067.433-.25.924-.374 1.474-.374.609 0 1.111.114 1.507.341.403.22.704.539.902.957.198.41.297.902.297 1.474 0 .11-.004.22-.01.33 0 .11-.008.209-.023.297h-4.147a2 2 0 0 0 .187.671c.132.264.312.462.54.594.234.132.498.198.791.198.337 0 .609-.08.814-.242.213-.169.367-.37.462-.605l1.254.341a2.65 2.65 0 0 1-.902 1.287c-.418.33-.979.495-1.683.495Zm-1.397-3.762h2.74a1.488 1.488 0 0 0-.122-.495.954.954 0 0 0-.264-.385.989.989 0 0 0-.407-.242 1.475 1.475 0 0 0-.528-.088 1.39 1.39 0 0 0-.77.22 1.422 1.422 0 0 0-.528.649 1.558 1.558 0 0 0-.12.341ZM97.953 24l-1.672-5.786h1.606l.869 3.685h.077l1.012-3.685h1.452l1.023 3.685h.077l.869-3.685h1.584L103.167 24h-1.551l-1.034-3.74h-.077L99.493 24h-1.54Z" fill="#1A73E8"/></g></g><defs><clipPath id="a"><path fill="#fff" d="M0 0h117v72H0z"/></clipPath><clipPath id="b"><path fill="#fff" transform="translate(-130 -129)" d="M0 0h563v317H0z"/></clipPath><filter id="c" x="39.471" y="14.414" width="44.588" height="47.172" filterUnits="userSpaceOnUse" color-interpolation-filters="sRGB"><feFlood flood-opacity="0" result="BackgroundImageFix"/><feColorMatrix in="SourceAlpha" values="0 0 0 0 0 0 0 0 0 0 0 0 0 0 0 0 0 0 127 0" result="hardAlpha"/><feMorphology radius="2" operator="dilate" in="SourceAlpha" result="effect1_dropShadow_3425_862"/><feOffset dy="2"/><feGaussianBlur stdDeviation="3"/><feColorMatrix values="0 0 0 0 0 0 0 0 0 0 0 0 0 0 0 0 0 0 0.15 0"/><feBlend in2="BackgroundImageFix" result="effect1_dropShadow_3425_862"/><feColorMatrix in="SourceAlpha" values="0 0 0 0 0 0 0 0 0 0 0 0 0 0 0 0 0 0 127 0" result="hardAlpha"/><feOffset dy="1"/><feGaussianBlur stdDeviation="1"/><feColorMatrix values="0 0 0 0 0 0 0 0 0 0 0 0 0 0 0 0 0 0 0.3 0"/><feBlend in2="effect1_dropShadow_3425_862" result="effect2_dropShadow_3425_862"/><feBlend in="SourceGraphic" in2="effect2_dropShadow_3425_862" result="shape"/></filter><filter id="d" x="37" y="8.135" width="52" height="55.731" filterUnits="userSpaceOnUse" color-interpolation-filters="sRGB"><feFlood flood-opacity="0" result="BackgroundImageFix"/><feBlend in="SourceGraphic" in2="BackgroundImageFix" result="shape"/><feGaussianBlur stdDeviation="4" result="effect1_foregroundBlur_3425_862"/></filter></defs></svg>